<?xml version="1.0" encoding="UTF-8" standalone="no"?>
<!-- Created with Inkscape (http://www.inkscape.org/) -->

<svg
   width="256"
   height="256"
   viewBox="0 0 67.733334 67.733333"
   version="1.1"
   id="svg5"
   inkscape:version="1.2.1 (8a69933317, 2022-10-28, custom)"
   sodipodi:docname="brand.svg"
   xmlns:inkscape="http://www.inkscape.org/namespaces/inkscape"
   xmlns:sodipodi="http://sodipodi.sourceforge.net/DTD/sodipodi-0.dtd"
   xmlns:xlink="http://www.w3.org/1999/xlink"
   xmlns="http://www.w3.org/2000/svg"
   xmlns:svg="http://www.w3.org/2000/svg">
  <sodipodi:namedview
     id="namedview7"
     pagecolor="#505050"
     bordercolor="#eeeeee"
     borderopacity="1"
     inkscape:showpageshadow="false"
     inkscape:pageopacity="0"
     inkscape:pagecheckerboard="true"
     inkscape:deskcolor="#505050"
     inkscape:document-units="mm"
     showgrid="false"
     inkscape:zoom="3.659624"
     inkscape:cx="196.87815"
     inkscape:cy="153.15781"
     inkscape:window-width="2496"
     inkscape:window-height="1376"
     inkscape:window-x="0"
     inkscape:window-y="0"
     inkscape:window-maximized="1"
     inkscape:current-layer="layer1" />
  <defs
     id="defs2">
    <linearGradient
       inkscape:collect="always"
       id="linearGradient1437">
      <stop
         style="stop-color:#a000a7;stop-opacity:1;"
         offset="0"
         id="stop1433" />
      <stop
         style="stop-color:#808080;stop-opacity:0;"
         offset="1"
         id="stop1435" />
    </linearGradient>
    <linearGradient
       inkscape:collect="always"
       xlink:href="#linearGradient1437"
       id="linearGradient1439"
       x1="32.053082"
       y1="37.482162"
       x2="31.811052"
       y2="64.802879"
       gradientUnits="userSpaceOnUse" />
  </defs>
  <g
     inkscape:label="Layer 1"
     inkscape:groupmode="layer"
     id="layer1">
    <path
       style="fill:none;stroke-width:1.32291667;stroke-dasharray:none;stroke:#005ba7;stroke-opacity:1"
       d="m 20.017241,23.847143 c 7.567786,0.819012 25.047375,0.917142 34.298467,-0.04536 1.491469,-0.631669 5.632305,-4.588109 -2.754741,-6.929621 -7.602095,-1.821232 -8.222321,0.181161 -8.222321,0.181161 0,0 -1.151163,-5.729045 -9.259558,-5.711641 -8.108393,0.01732 -9.11208,1.388692 -10.027427,4.215639 -0.915351,2.826946 0.718368,3.550826 1.041291,4.244474 -1.52479,-0.56592 -1.398286,-1.559218 -7.573677,-0.270803 -4.628281,2.365537 0.354023,3.652264 2.497966,4.316154 z"
       id="path694"
       sodipodi:nodetypes="cccczzcccc" />
    <path
       style="fill:url(#linearGradient1439);stroke-width:0.52916667;stroke:none;stroke-opacity:1;stroke-dasharray:none;fill-opacity:1"
       d="m 26.865929,40.595505 c -3.225984,-5.1612 -6.794524,-13.006409 4.32291,-13.623363 2.784192,1.171972 11.72487,11.114881 7.660899,13.928228 0,0 2.2245,5.19289 9.304127,2.508683 6.348523,-2.407014 12.853092,4.563313 13.18747,10.08507 -2.046559,-3.495626 -7.360405,-10.904304 -10.499809,-9.4053 -5.331596,1.415146 -5.745096,3.32023 -11.665282,0.769646 0,0 1.118585,1.007605 5.54035,2.845443 6.168213,0.755133 3.945291,-1.195631 8.069271,-0.729965 3.535681,0.399238 2.861147,9.805836 2.206226,9.050849 -0.840691,-0.96914 0.349394,-7.255552 -2.283672,-7.219898 -1.714274,0.06656 -3.819172,-1.320394 -8.869468,0.595881 -7.363502,-0.214988 -8.387498,-5.523766 -7.490975,-2.77955 0,0 -1.676877,2.626929 2.341622,5.465419 1.522729,0.414943 0.472526,4.327714 3.683354,0.67898 3.768282,-4.282214 8.26627,3.903728 8.26627,3.903728 0,0 -2.39775,-0.809648 -5.012043,-2.435303 -4.013922,-2.495992 2.701517,2.759549 -4.365474,1.917072 -3.309641,-0.394552 -3.855383,-1.320689 -7.77204,-8.858174 0,0 -1.334401,-3.653336 -1.4011,1.104839 -1.314404,4.536113 0.53666,4.925184 1.645776,7.883692 -3.247669,-1.933265 -3.867752,-1.647723 -3.558821,-3.850778 -0.104296,-2.654409 0.218936,-1.975629 0.444643,-5.528285 0.354271,-0.716432 0.253056,-0.994718 -3.296398,2.320584 -3.549454,3.315302 -6.685695,0.547286 -8.173804,2.00786 -4.224347,0.739077 -1.36849,5.170774 -1.36849,5.170774 0,0 -4.631972,-7.181669 2.657002,-6.422133 4.702332,-0.236663 8.047688,-3.681812 8.047688,-3.681812 0,0 -3.876785,0.803007 -9.182329,2.07887 -7.544544,0.540779 -6.805606,-1.639816 -6.805606,-1.639816 l -1.59831,10.350233 c -0.659669,-7.825021 -2.6047714,-14.506952 4.644075,-10.376011 5.767842,0.385614 11.405205,-1.114909 11.405205,-1.114909 0,0 -5.105451,1.945955 -8.990336,0.450009 C 11.476666,40.506906 12.210484,42.663178 8.7206255,42.780133 5.2076789,39.996379 3.973191,55.918067 4.6606535,49.105976 5.348116,42.293884 6.039173,34.744648 17.872276,44.390377 c 9.841559,1.124008 8.061253,0.39438 8.061253,0.39438 0,0 -5.223657,-0.690142 -11.125825,-7.401426 -1.719191,-3.851587 -6.3037602,-4.061112 -5.5556462,-10.231008 1.4035972,-2.999235 3.3790812,-9.751751 8.5416072,-8.715292 3.165013,1.07515 3.605578,4.35454 3.605578,4.35454 0,0 -1.756332,-2.157078 -4.350868,-2.727836 -4.481344,-0.523031 -3.674769,7.947691 -3.674769,7.947691 0.757434,4.671126 -0.417408,2.868196 3.778698,7.413083 2.44994,4.334206 11.346542,7.962659 11.346542,7.962659 0,0 3.949276,-1.242623 -1.632917,-2.791663 z"
       id="path198"
       sodipodi:nodetypes="cccsccccssccccscssccccczccccccccccczccccccccccc" />
  </g>
</svg>
